<svg xmlns="http://www.w3.org/2000/svg" x="0px" y="0px"
width="48" height="48"
viewBox="0,0,255.99626,255.99626"
style="fill:#000000;">
<g fill="none" fill-rule="nonzero" stroke="none" stroke-width="1" stroke-linecap="butt" stroke-linejoin="miter" stroke-miterlimit="10" stroke-dasharray="" stroke-dashoffset="0" font-family="none" font-weight="none" font-size="none" text-anchor="none" style="mix-blend-mode: normal"><g transform="scale(5.33333,5.33333)"><path d="M40,10h-32c-2.757,0 -5,2.243 -5,5v20c0,2.757 2.243,5 5,5h32c2.757,0 5,-2.243 5,-5v-20c0,-2.757 -2.243,-5 -5,-5z" fill="#99cb4c"></path><path d="M30,12c-0.553,0 -1,-0.447 -1,-1v-3c0,-0.552 -0.448,-1 -1,-1h-8c-0.552,0 -1,0.448 -1,1v3c0,0.553 -0.447,1 -1,1c-0.553,0 -1,-0.447 -1,-1v-3c0,-1.654 1.346,-3 3,-3h8c1.654,0 3,1.346 3,3v3c0,0.553 -0.447,1 -1,1z" fill="#324561"></path><path d="M37,24h-3c-1.103,0 -2,-0.897 -2,-2v-1h-16v1c0,1.103 -0.897,2 -2,2h-3c-1.103,0 -2,-0.897 -2,-2v-1h-6c-0.553,0 -1,-0.447 -1,-1c0,-0.553 0.447,-1 1,-1h7c0.553,0 1,0.447 1,1v2h3v-2c0,-0.553 0.447,-1 1,-1h18c0.553,0 1,0.447 1,1v2h3v-2c0,-0.553 0.447,-1 1,-1h7c0.553,0 1,0.447 1,1c0,0.553 -0.447,1 -1,1h-6v1c0,1.103 -0.897,2 -2,2z" fill="#324561"></path></g></g>
</svg>